<?xml version="1.0" standalone="no"?>
<!DOCTYPE svg PUBLIC "-//W3C//DTD SVG 20010904//EN"
 "http://www.w3.org/TR/2001/REC-SVG-20010904/DTD/svg10.dtd">
<svg version="1.0" xmlns="http://www.w3.org/2000/svg"
 width="1594.000000pt" height="1594.000000pt" viewBox="0 0 1594.000000 1594.000000"
 preserveAspectRatio="xMidYMid meet">
<metadata>
Created by potrace 1.14, written by Peter Selinger 2001-2017
</metadata>
<g transform="translate(0.000000,1594.000000) scale(0.100000,-0.100000)"
fill="#000000" stroke="none">
<path d="M6725 13709 c-15 -44 -25 -82 -24 -84 2 -1 42 -16 89 -33 120 -42
245 -91 390 -152 137 -57 543 -257 589 -289 16 -12 32 -21 36 -21 7 0 307
-180 315 -189 3 -4 43 -31 90 -61 293 -188 656 -487 955 -785 231 -231 424
-453 614 -709 145 -194 325 -473 445 -686 48 -85 257 -504 278 -555 8 -22 36
-89 61 -150 141 -346 289 -833 343 -1135 3 -14 14 -72 24 -130 11 -58 22 -125
25 -150 3 -25 7 -56 10 -70 2 -14 7 -44 10 -67 3 -24 8 -62 11 -85 8 -57 15
-135 31 -343 4 -55 8 -238 8 -406 0 -197 4 -306 10 -306 56 0 58 -5 10 -24
-27 -11 -64 -26 -80 -34 -17 -7 -43 -19 -59 -25 -128 -48 -536 -253 -710 -357
-64 -37 -71 -42 -231 -143 -128 -82 -347 -236 -450 -316 l-80 -63 -18 162
c-126 1143 -754 2183 -1712 2836 -880 600 -1965 819 -3020 610 -568 -112
-1087 -342 -1577 -696 -247 -178 -318 -233 -389 -301 l-71 -67 -102 3 c-430
13 -805 -258 -933 -675 -25 -81 -27 -102 -27 -263 -1 -156 2 -184 23 -255 13
-44 39 -145 57 -223 l33 -144 -34 -113 c-64 -211 -107 -412 -141 -650 -25
-182 -31 -614 -10 -775 45 -344 152 -657 323 -946 110 -186 212 -315 382 -484
l156 -156 -115 -48 c-96 -40 -521 -246 -570 -276 -49 -30 -204 -120 -206 -120
-18 0 -386 -248 -551 -371 -157 -118 -423 -337 -423 -349 0 -3 2426 -5 5390
-5 l5391 0 71 105 c132 195 394 543 442 585 6 6 26 28 45 50 152 181 388 418
616 620 485 431 1162 855 1750 1095 11 4 37 15 57 24 49 22 146 58 293 111
112 40 198 82 305 149 46 30 211 146 220 156 3 3 37 32 75 65 92 77 221 210
302 310 133 164 284 414 353 585 12 30 26 64 31 75 5 11 22 58 38 105 37 104
49 170 32 170 -7 0 -37 11 -67 25 -30 14 -59 25 -64 25 -6 0 -18 5 -28 10 -60
35 -503 178 -727 235 -101 26 -299 70 -405 90 -14 3 -36 7 -50 9 -14 3 -41 8
-60 10 -19 3 -44 8 -56 10 -26 5 -125 19 -142 19 -13 0 -12 20 4 102 14 67 21
112 43 270 11 77 23 169 26 205 4 36 8 81 10 100 5 48 14 178 20 285 6 95 6
572 1 640 -2 22 -6 87 -10 145 -4 58 -8 119 -10 135 -2 17 -7 59 -11 95 -3 36
-8 76 -10 90 -2 14 -6 50 -10 80 -16 137 -84 506 -120 650 -70 282 -136 500
-222 735 -30 83 -62 166 -70 185 -8 19 -19 44 -24 55 -228 534 -459 942 -772
1365 -81 110 -245 318 -267 340 -3 3 -39 43 -80 90 -128 146 -272 295 -452
467 l-65 62 -50 -52 c-27 -29 -52 -58 -57 -64 -4 -8 16 -34 55 -70 98 -93 254
-250 348 -352 47 -51 91 -99 96 -105 44 -47 232 -280 303 -375 48 -64 89 -118
92 -121 17 -15 229 -344 294 -455 42 -71 83 -141 91 -155 19 -31 221 -440 245
-495 10 -22 25 -56 34 -75 37 -82 147 -375 185 -490 74 -228 164 -562 187
-690 3 -14 11 -60 20 -103 8 -42 17 -89 20 -102 2 -14 8 -51 14 -83 5 -31 12
-79 15 -107 4 -27 8 -57 10 -65 2 -8 7 -42 10 -75 3 -33 8 -71 10 -85 3 -14 7
-59 11 -100 3 -41 7 -91 9 -110 21 -210 21 -776 0 -985 -1 -16 -5 -61 -9 -100
-3 -38 -8 -86 -11 -105 -3 -19 -7 -55 -10 -80 -3 -25 -8 -65 -11 -90 -3 -25
-12 -85 -20 -135 -21 -129 -26 -156 -40 -218 l-6 -27 -71 5 c-40 3 -85 8 -102
10 -181 24 -779 24 -1050 1 -163 -14 -197 -18 -217 -21 -22 -3 -50 -7 -158
-20 -57 -7 -250 -40 -345 -59 -30 -6 -104 -18 -112 -18 -5 0 -18 -4 -31 -9
-13 -5 -37 -11 -55 -14 -118 -21 -513 -135 -691 -199 -54 -20 -101 -36 -105
-36 -3 0 -6 125 -7 278 0 234 -6 406 -19 557 -5 58 -16 170 -20 200 -25 182
-32 230 -39 270 -3 17 -8 48 -11 70 -13 87 -77 386 -105 495 -17 63 -33 126
-36 139 -13 60 -122 392 -176 536 -118 312 -279 660 -423 910 -91 158 -93 161
-121 207 -24 40 -38 62 -103 163 -76 117 -277 398 -353 490 -207 253 -307 365
-503 560 -198 197 -287 277 -504 457 -186 155 -534 396 -790 548 -151 89 -489
266 -601 314 -25 11 -74 32 -110 48 -93 41 -113 50 -135 58 -160 63 -212 83
-280 106 -44 15 -88 31 -97 35 -14 8 -21 -4 -43 -72z"/>
</g>
</svg>
